<svg xmlns="http://www.w3.org/2000/svg" width="23.71" height="18.032" viewBox="0 0 23.71 18.032">
  <path id="Path_1" data-name="Path 1" d="M.071,4.207A2.839,2.839,0,0,1,2.839,2H19.871a2.839,2.839,0,0,1,2.768,2.207L11.355,11.1ZM0,5.828V15.911l8.237-5.05Zm9.6,5.866L.271,17.41a2.839,2.839,0,0,0,2.568,1.622H19.871a2.839,2.839,0,0,0,2.566-1.624l-9.325-5.715-1.757,1.074L9.6,11.693Zm4.877-.832,8.237,5.049V5.828l-8.237,5.033Z" transform="translate(0.5 -1.5)" fill="#ed3237" stroke="#ed3237" stroke-width="1"/>
</svg>
